<?xml version="1.0" encoding="utf-8"?>
<!-- Generator: Adobe Illustrator 19.2.1, SVG Export Plug-In . SVG Version: 6.00 Build 0)  -->
<svg version="1.1" baseProfile="basic" xmlns="http://www.w3.org/2000/svg" xmlns:xlink="http://www.w3.org/1999/xlink" x="0px"
	 y="0px" viewBox="0 0 3264 2448" xml:space="preserve">
<g id="Color_Sorting_Machine">
	<g id="Frame">
		<path fill="#304E62" d="M884,689.8h1446.4l-33.2,104H912.5L884,689.8z M1020.8,793.9h-108l157.9,493.9h53.6L1020.8,793.9z
			 M2188.8,793.9h108l-157.9,493.9h-53.6L2188.8,793.9z M913.6,2220.6h1376l-53.6,54.4H959.5L913.6,2220.6z"/>
		<path fill="#406080" stroke="#304E62" stroke-width="4" d="M1035,793.9h-55l132,494.3h27.5L1035,793.9z M2174.6,793.9h55
			l-132,494.3h-27.5L2174.6,793.9z M916,580.2h1379.2l35.2,112H884L916,580.2z M1072.3,1287.6h1068.4l148.1,937.8l-1375.2-4.5
			L1072.3,1287.6z"/>
	</g>
	<g id="Bottom_Arm_Base">
		<path fill="#406080" stroke="#304E62" stroke-width="4" d="M1423.2,1271.6H1784l25.6,149.6h-416.8L1423.2,1271.6z"/>
		<path fill="#304E62" d="M1392.8,1421.2h416.8l-28.1,82l-360.8,1.3L1392.8,1421.2z"/>
	</g>
	<g id="LCD">
		<g id="Board">
			<path opacity="0.9" fill="#00A651" d="M994.6,2030.2h309.5l-6.5,139.2h-324L994.6,2030.2z"/>
			<path id="Rounded_Rectangle_1" opacity="0.8" fill="#FFF568" d="M1007.6,2034.9h2.4c5.5,0,10,4.5,10,10l0,0c0,5.5-4.5,10-10,10
				h-2.4c-5.5,0-10-4.5-10-10l0,0C997.6,2039.4,1002.1,2034.9,1007.6,2034.9z"/>
			<path id="Rounded_Rectangle_1_copy" opacity="0.8" fill="#FFF568" d="M1282,2032.6h2.4c5.5,0,10,4.5,10,10l0,0
				c0,5.5-4.5,10-10,10h-2.4c-5.5,0-10-4.5-10-10l0,0C1272,2037,1276.5,2032.6,1282,2032.6z"/>
			<path id="Rounded_Rectangle_1_copy_2" opacity="0.8" fill="#FFF568" d="M994.8,2142.2h2.4c5.5,0,10,4.5,10,10l0,0
				c0,5.5-4.5,10-10,10h-2.4c-5.5,0-10-4.5-10-10l0,0C984.8,2146.6,989.3,2142.2,994.8,2142.2z"/>
			<path id="Rounded_Rectangle_1_copy_3" opacity="0.8" fill="#FFF568" d="M1278,2143h2.4c5.5,0,10,4.5,10,10v0c0,5.5-4.5,10-10,10
				h-2.4c-5.5,0-10-4.5-10-10v0C1268,2147.4,1272.5,2143,1278,2143z"/>
		</g>
		<path fill="#1CBBB4" stroke="#304E62" stroke-width="16" d="M1013.6,2052.6h268.6l-6.2,90.4h-275.4L1013.6,2052.6z"/>
		<path fill="none" d="z"/>
	</g>
	<g id="Cups">
		<g id="Cup_1">
			<path fill="#A1A1A1" d="M1241.6,1708.2c0,42.2-11.1,80.3-28.9,108.1c-5.4,19.1-35,33.7-70.7,33.7s-65.3-14.6-70.7-33.7
				c-17.8-27.8-28.9-65.9-28.9-108.1H1241.6z"/>
			<path fill="#E1E1E1" stroke="#FFFFFF" stroke-width="16" d="M1142,1636.9c55,0,99.6,34.2,99.6,76.4s-44.6,76.4-99.6,76.4
				s-99.6-34.2-99.6-76.4S1087,1636.9,1142,1636.9z"/>
		</g>
		<g id="Cup_2">
			<path fill="#A1A1A1" d="M1433.6,1881.4c0,37.6-10.9,71.7-28.4,96.7c-3.9,21.6-34.3,38.5-71.2,38.5s-67.3-16.8-71.2-38.5
				c-17.6-24.9-28.4-59-28.4-96.7H1433.6z"/>
			<path fill="#E1E1E1" stroke="#FFFFFF" stroke-width="16" d="M1334,1807.3c55,0,99.6,37,99.6,82.7s-44.6,82.7-99.6,82.7
				s-99.6-37-99.6-82.7S1279,1807.3,1334,1807.3z"/>
		</g>
		<g id="Cup_3">
			<path fill="#A1A1A1" d="M1678.3,2061.8L1678.3,2061.8c-7.3,18.5-35.8,32.4-69.9,32.4s-62.6-13.8-69.8-32.4h0
				c-18.4-22.6-29.8-53.9-29.8-88.7H1708C1708,2007.8,1696.6,2039.2,1678.3,2061.8z"/>
			<path fill="#E1E1E1" stroke="#FFFFFF" stroke-width="16" d="M1608.4,1877.9c55,0,99.6,40.8,99.6,91.1s-44.6,91.1-99.6,91.1
				s-99.6-40.8-99.6-91.1S1553.4,1877.9,1608.4,1877.9z"/>
		</g>
		<g id="Cup_4">
			<path fill="#A1A1A1" d="M1977.6,1881.4c0,38-11.1,72.5-29,97.5c-5.6,20.5-35.1,36.1-70.6,36.1s-65-15.6-70.6-36.1
				c-17.9-25-29-59.4-29-97.5H1977.6z"/>
			<path fill="#E1E1E1" stroke="#FFFFFF" stroke-width="16" d="M1878,1807.3c55,0,99.6,37,99.6,82.7s-44.6,82.7-99.6,82.7
				s-99.6-37-99.6-82.7S1823,1807.3,1878,1807.3z"/>
		</g>
		<g id="Cup_5">
			<path fill="#A1A1A1" d="M2169.6,1708.2c0,42.2-11.1,80.3-28.9,108.1c-5.4,19.1-35,33.7-70.7,33.7s-65.3-14.6-70.7-33.7
				c-17.8-27.8-28.9-65.9-28.9-108.1H2169.6L2169.6,1708.2z"/>
			<path fill="#E1E1E1" stroke="#FFFFFF" stroke-width="16" d="M2070,1636.9c55,0,99.6,34.2,99.6,76.4s-44.6,76.4-99.6,76.4
				s-99.6-34.2-99.6-76.4S2015,1636.9,2070,1636.9z"/>
		</g>
	</g>
	<g id="Bottom_Tube">
		<path fill="#C69C6D" d="M1571,1352.4h72l27.6,491h-116.8L1571,1352.4z"/>
		<path fill="#754C24" stroke="#C69C6D" stroke-width="16" d="M1611.4,1811c31.2,0,57.8,18.4,59.5,42.1
			c1.8,24.8-24.3,45.9-58.3,45.9s-60.6-21-59.5-45.9C1554.1,1829.4,1580.2,1811,1611.4,1811z"/>
	</g>
	<g id="Tunnel">
		<path id="Ellipse_2_copy_2" fill="#304E62" d="M1712.7,1260.4c-2.5,67.2-49.7,120.8-107.5,120.8s-105-53.6-107.5-120.8H1712.7z"/>
		<path fill="#406080" d="M1605.2,1174.8c59.4,0,107.6,32.6,107.6,72.8s-48.2,72.8-107.6,72.8s-107.6-32.6-107.6-72.8
			S1545.8,1174.8,1605.2,1174.8z"/>
	</g>
	<g id="Color_Sensor_Arm">
		<path fill="#406080" d="M1704,942.7h430.4l22.4,125.6h-430.4L1704,942.7z"/>
		<path fill="#304E62" d="M1726.4,1067.5h430.4l-16,60h-430.4L1726.4,1067.5z"/>
		<path fill="#406080" d="M1689.2,1003.3l15.6-60.6l22.4,124.3l-15.6,60.6L1689.2,1003.3z"/>
	</g>
	<g id="Top_Tube_Bottom">
		<path id="Rectangle_6_copy" fill="#C69C6D" d="M1568,1129.2h77.6l-5,91.2H1573L1568,1129.2z"/>
		<path id="Ellipse_1_copy_2" fill="#C69C6D" d="M1607.2,1192.4c18.6,0,33.6,11.8,33.6,26.4s-15,26.4-33.6,26.4
			s-33.6-11.8-33.6-26.4S1588.6,1192.4,1607.2,1192.4z"/>
	</g>
	<g id="Top_Servo">
		<g id="Side">
			<path fill="#CCCCCC" stroke="#304E62" stroke-linejoin="round" d="M1708,1073.1h-58.8c-27.3,8.5-56.6,8.5-84,0h-58.8v-60.8h0.1
				c-0.1-1.1-0.1-2.1-0.1-3.2c0-38.9,45.1-70.4,100.8-70.4s100.8,31.5,100.8,70.4c0,1.1-0.1,2.1-0.1,3.2h0.1V1073.1z"/>
		</g>
		<path id="Front" fill="#FFFFFF" stroke="#304E62" stroke-linejoin="round" d="M1607.2,1002.7c55.7,0,100.8,31.5,100.8,70.4
			s-45.1,70.4-100.8,70.4s-100.8-31.5-100.8-70.4S1551.5,1002.7,1607.2,1002.7z"/>
	</g>
	<g id="Top_Tube">
		<g id="Middle">
			<path fill="#C69C6D" d="M1554.4,793.9H1660l-8,153.6h-89.6L1554.4,793.9z"/>
			<path fill="#C69C6D" d="M1607.2,922.7c24.3,0,44,11.8,44,26.4s-19.7,26.4-44,26.4s-44-11.8-44-26.4S1582.9,922.7,1607.2,922.7z"
				/>
		</g>
		<g id="Top">
			<path id="Rectangle_6_copy-2" fill="#C69C6D" d="M1546.4,501.8h120.8l-5,115.2h-109.9L1546.4,501.8z"/>
			<path id="Ellipse_1_copy" fill="#754C24" stroke="#C69C6D" stroke-width="16" d="M1606.8,469c33.4,0,60.4,14.9,60.4,33.2
				s-27,33.2-60.4,33.2s-60.4-14.9-60.4-33.2S1573.4,469,1606.8,469z"/>
			<path id="Ellipse_1_copy_2-2" fill="#C69C6D" d="M1607.2,585c30.3,0,54.9,14.9,54.9,33.2s-24.6,33.2-54.9,33.2
				s-54.9-14.9-54.9-33.2S1576.9,585,1607.2,585z"/>
		</g>
	</g>
	<g id="LED">
		<g id="Wires">
			<path id="Yellow_Wire" fill="#FFF568" d="M1430.4,2147.8c0,0-52.9-2.3-82.4,27.2c-12,12-28,68-28,68l4.8,2.4
				c0,0,8.3-40.8,28.8-67.2c16.1-20.7,70.4-25.6,77.6-25.6S1430.4,2147.8,1430.4,2147.8z"/>
			<path id="Red_Wire" fill="#ED1C24" d="M1432.4,2156.4c0,0-55.2,0.2-82.2,29.2c-10.2,10.9-22.7,59.4-22.7,59.4l3.8,2.4
				c0,0,6.3-35.1,23.8-58.9c14.3-19.4,67.5-26.6,78.1-27C1441.5,2161.2,1432.4,2156.4,1432.4,2156.4z"/>
			<path id="Green_Wire" fill="#00A651" d="M1433.2,2165.9c0,0-52.6-0.7-76.1,25.7c-8.5,9.5-18.3,52-18.3,52l3.1,2.5
				c0,0,4.9-30.9,19.4-51.6c12.1-17.3,60.6-23.3,72.7-23.5C1442.5,2170.9,1433.2,2165.9,1433.2,2165.9z"/>
		</g>
		<g id="Light">
			<path id="Rectangle_19_copy" opacity="0.7" fill="#A1A1A1" d="M1429.6,2138.9l76.8-3.2l-1.6,52l-76-0.8L1429.6,2138.9z"/>
			<path opacity="0.7" fill="#14242F" d="M1444.1,2138.5l62.3-2.7l-1.6,52l-61.7-0.6L1444.1,2138.5z"/>
			<path opacity="0.7" fill="#D2C517" d="M1466,2141.9l31.1-0.1l0.1,30.1l-34.5,0.1L1466,2141.9z"/>
			<path opacity="0.7" fill="#FFFFFF" d="M1477.2,2143c8.6,0,15.6,5.7,15.6,12.8s-7,12.8-15.6,12.8s-15.6-5.7-15.6-12.8
				S1468.6,2143,1477.2,2143z"/>
		</g>
	</g>
	<g id="Switch">
		<path fill="#304E62" stroke="#14242F" stroke-width="8" d="M2136,1990.9l52.9-1.6l11.5,47.2l-55.4,1.4L2136,1990.9z"/>
		<path id="Ellipse_6_copy" fill="#6898B9" d="M2169.2,1999.7c7.7,0,14,5.4,14,12s-6.3,12-14,12s-14-5.4-14-12
			S2161.5,1999.7,2169.2,1999.7z"/>
		<path fill="#6898B9" d="M2155.2,2004.5h28v8h-28V2004.5z"/>
		<path fill="#A8D4F2" d="M2169.2,1992.5c7.7,0,14,5.4,14,12s-6.3,12-14,12s-14-5.4-14-12S2161.5,1992.5,2169.2,1992.5z"/>
	</g>
	<g id="Icon">
		<circle fill="#304E62" cx="974" cy="232" r="128"/>
		<circle fill="#EE3E4B" cx="974" cy="177.7" r="38.4"/>
		<circle fill="#89C553" cx="1028.3" cy="232" r="38.4"/>
		<circle fill="#E7A535" cx="919.7" cy="232" r="38.4"/>
		<circle fill="#FCF300" cx="974" cy="286.3" r="38.4"/>
		<circle fill="#9C34A5" cx="974" cy="232" r="32"/>
		<g>
			<path fill="#E4F1FE" d="M940.7,275v-20.8c3.8,3.2,7.9,5.5,12.3,7.1c4.4,1.6,8.9,2.4,13.4,2.4c2.6,0,5-0.2,6.9-0.7
				c2-0.5,3.6-1.1,4.9-2c1.3-0.8,2.3-1.8,3-3c0.7-1.1,1-2.4,1-3.7c0-1.8-0.5-3.5-1.6-4.9c-1-1.4-2.5-2.8-4.3-4
				c-1.8-1.2-3.9-2.4-6.4-3.5c-2.5-1.1-5.1-2.3-8-3.5c-7.3-3-12.7-6.7-16.3-11.1c-3.6-4.4-5.4-9.7-5.4-15.9c0-4.9,1-9,2.9-12.5
				c2-3.5,4.6-6.4,8-8.6c3.4-2.3,7.3-3.9,11.7-5c4.4-1.1,9.1-1.6,14.1-1.6c4.9,0,9.2,0.3,12.9,0.9c3.8,0.6,7.2,1.5,10.4,2.7v19.5
				c-1.6-1.1-3.3-2-5.1-2.9c-1.8-0.8-3.7-1.5-5.7-2.1c-2-0.5-3.9-0.9-5.8-1.2c-1.9-0.3-3.8-0.4-5.5-0.4c-2.4,0-4.6,0.2-6.5,0.7
				c-2,0.5-3.6,1.1-4.9,1.9c-1.3,0.8-2.4,1.8-3.1,3c-0.7,1.2-1.1,2.4-1.1,3.9c0,1.6,0.4,3,1.2,4.2c0.8,1.2,2,2.4,3.5,3.5
				c1.5,1.1,3.4,2.2,5.5,3.3c2.2,1.1,4.6,2.2,7.4,3.3c3.7,1.6,7.1,3.2,10.1,5c3,1.8,5.5,3.7,7.6,6c2.1,2.2,3.8,4.7,4.9,7.6
				c1.1,2.8,1.7,6.2,1.7,9.9c0,5.2-1,9.6-3,13.1c-2,3.5-4.7,6.4-8,8.6c-3.4,2.2-7.3,3.8-11.8,4.7s-9.2,1.4-14.2,1.4
				c-5.1,0-10-0.4-14.6-1.3C948.1,278,944.1,276.7,940.7,275z"/>
		</g>
		<g id="S">
			<path fill="none" stroke="#304E62" stroke-width="8" stroke-linejoin="round" d="M940.7,275v-20.8c3.8,3.2,7.9,5.5,12.3,7.1
				c4.4,1.6,8.9,2.4,13.4,2.4c2.6,0,5-0.2,6.9-0.7c2-0.5,3.6-1.1,4.9-2c1.3-0.8,2.3-1.8,3-3c0.7-1.1,1-2.4,1-3.7
				c0-1.8-0.5-3.5-1.6-4.9c-1-1.4-2.5-2.8-4.3-4c-1.8-1.2-3.9-2.4-6.4-3.5c-2.5-1.1-5.1-2.3-8-3.5c-7.3-3-12.7-6.7-16.3-11.1
				c-3.6-4.4-5.4-9.7-5.4-15.9c0-4.9,1-9,2.9-12.5c2-3.5,4.6-6.4,8-8.6c3.4-2.3,7.3-3.9,11.7-5c4.4-1.1,9.1-1.6,14.1-1.6
				c4.9,0,9.2,0.3,12.9,0.9c3.8,0.6,7.2,1.5,10.4,2.7v19.5c-1.6-1.1-3.3-2-5.1-2.9c-1.8-0.8-3.7-1.5-5.7-2.1c-2-0.5-3.9-0.9-5.8-1.2
				c-1.9-0.3-3.8-0.4-5.5-0.4c-2.4,0-4.6,0.2-6.5,0.7c-2,0.5-3.6,1.1-4.9,1.9c-1.3,0.8-2.4,1.8-3.1,3c-0.7,1.2-1.1,2.4-1.1,3.9
				c0,1.6,0.4,3,1.2,4.2c0.8,1.2,2,2.4,3.5,3.5c1.5,1.1,3.4,2.2,5.5,3.3c2.2,1.1,4.6,2.2,7.4,3.3c3.7,1.6,7.1,3.2,10.1,5
				c3,1.8,5.5,3.7,7.6,6c2.1,2.2,3.8,4.7,4.9,7.6c1.1,2.8,1.7,6.2,1.7,9.9c0,5.2-1,9.6-3,13.1c-2,3.5-4.7,6.4-8,8.6
				c-3.4,2.2-7.3,3.8-11.8,4.7s-9.2,1.4-14.2,1.4c-5.1,0-10-0.4-14.6-1.3C948.1,278,944.1,276.7,940.7,275z"/>
		</g>
	</g>
	<g>
		<path fill="#E4F1FE" d="M1170.7,275v-20.8c3.8,3.2,7.9,5.5,12.3,7.1c4.4,1.6,8.9,2.4,13.4,2.4c2.6,0,5-0.2,6.9-0.7
			c2-0.5,3.6-1.1,4.9-2c1.3-0.8,2.3-1.8,3-3c0.7-1.1,1-2.4,1-3.7c0-1.8-0.5-3.5-1.6-4.9c-1-1.4-2.5-2.8-4.3-4
			c-1.8-1.2-3.9-2.4-6.4-3.5c-2.5-1.1-5.1-2.3-8-3.5c-7.3-3-12.7-6.7-16.3-11.1c-3.6-4.4-5.4-9.7-5.4-15.9c0-4.9,1-9,2.9-12.5
			c2-3.5,4.6-6.4,8-8.6c3.4-2.3,7.3-3.9,11.7-5c4.4-1.1,9.1-1.6,14.1-1.6c4.9,0,9.2,0.3,12.9,0.9c3.8,0.6,7.2,1.5,10.4,2.7v19.5
			c-1.6-1.1-3.3-2-5.1-2.9c-1.8-0.8-3.7-1.5-5.7-2.1c-2-0.5-3.9-0.9-5.8-1.2c-1.9-0.3-3.8-0.4-5.5-0.4c-2.4,0-4.6,0.2-6.5,0.7
			c-2,0.5-3.6,1.1-4.9,1.9c-1.3,0.8-2.4,1.8-3.1,3c-0.7,1.2-1.1,2.4-1.1,3.9c0,1.6,0.4,3,1.2,4.2c0.8,1.2,2,2.4,3.5,3.5
			c1.5,1.1,3.4,2.2,5.5,3.3c2.2,1.1,4.6,2.2,7.4,3.3c3.7,1.6,7.1,3.2,10.1,5c3,1.8,5.5,3.7,7.6,6c2.1,2.2,3.8,4.7,4.9,7.6
			c1.1,2.8,1.7,6.2,1.7,9.9c0,5.2-1,9.6-3,13.1c-2,3.5-4.7,6.4-8,8.6c-3.4,2.2-7.3,3.8-11.8,4.7s-9.2,1.4-14.2,1.4
			c-5.1,0-10-0.4-14.6-1.3C1178.1,278,1174.1,276.7,1170.7,275z"/>
		<path fill="#E4F1FE" d="M1314.5,278.5h-24.7l-21.3-33.1h-0.3v33.1h-20.6v-98.7h20.6v62.8h0.3l19.9-30.8h24.4l-23.9,31.3
			L1314.5,278.5z"/>
		<path fill="#E4F1FE" d="M1332.7,201.3c-3.5,0-6.3-1-8.5-3.1c-2.2-2.1-3.3-4.6-3.3-7.6c0-3.1,1.1-5.6,3.3-7.6s5.1-2.9,8.5-2.9
			c3.5,0,6.4,1,8.6,2.9c2.2,2,3.3,4.5,3.3,7.6c0,3.1-1.1,5.7-3.3,7.7C1339.1,200.3,1336.2,201.3,1332.7,201.3z M1342.9,278.5h-20.6
			v-66.7h20.6V278.5z"/>
		<path fill="#E4F1FE" d="M1400.5,277.8c-3,1.6-7.6,2.4-13.7,2.4c-14.5,0-21.7-7.5-21.7-22.6V227h-10.8v-15.2h10.8v-14.4l20.5-5.9
			v20.2h15V227h-15v27c0,6.9,2.8,10.4,8.3,10.4c2.2,0,4.4-0.6,6.7-1.9V277.8z"/>
		<path fill="#E4F1FE" d="M1452.4,277.8c-3,1.6-7.6,2.4-13.7,2.4c-14.5,0-21.7-7.5-21.7-22.6V227h-10.8v-15.2h10.8v-14.4l20.5-5.9
			v20.2h15V227h-15v27c0,6.9,2.8,10.4,8.3,10.4c2.2,0,4.4-0.6,6.7-1.9V277.8z"/>
		<path fill="#E4F1FE" d="M1484.5,278.5H1464v-98.7h20.6V278.5z"/>
		<path fill="#E4F1FE" d="M1561.7,251.1h-43.5c0.7,9.7,6.8,14.5,18.3,14.5c7.3,0,13.8-1.7,19.3-5.2v14.8c-6.2,3.3-14.2,4.9-24,4.9
			c-10.8,0-19.1-3-25.1-9c-5.9-6-8.9-14.3-8.9-25c0-11.1,3.2-19.8,9.6-26.3c6.4-6.5,14.3-9.7,23.7-9.7c9.7,0,17.2,2.9,22.6,8.7
			c5.3,5.8,8,13.6,8,23.5V251.1z M1542.7,238.4c0-9.5-3.9-14.3-11.6-14.3c-3.3,0-6.2,1.4-8.6,4.1c-2.4,2.7-3.9,6.1-4.4,10.2H1542.7z
			"/>
		<path fill="#E4F1FE" d="M1679.7,275.2c-6.8,3.3-15.7,4.9-26.7,4.9c-14.3,0-25.6-4.2-33.8-12.6c-8.2-8.4-12.3-19.6-12.3-33.7
			c0-14.9,4.6-27,13.8-36.3c9.2-9.3,21.2-13.9,35.9-13.9c9.1,0,16.8,1.2,23,3.5v20.2c-6.3-3.7-13.4-5.6-21.4-5.6
			c-8.8,0-15.8,2.8-21.2,8.3c-5.4,5.5-8.1,13-8.1,22.4c0,9,2.5,16.2,7.6,21.6c5.1,5.4,11.9,8,20.5,8c8.2,0,15.7-2,22.5-6V275.2z"/>
		<path fill="#E4F1FE" d="M1725.7,280.2c-11.1,0-19.8-3.1-26.2-9.3c-6.4-6.2-9.5-14.7-9.5-25.4c0-11,3.3-19.7,9.9-25.9
			c6.6-6.2,15.5-9.3,26.8-9.3c11.1,0,19.7,3.1,26,9.3c6.3,6.2,9.4,14.5,9.4,24.7c0,11.1-3.2,19.8-9.7,26.2
			C1745.9,277,1737,280.2,1725.7,280.2z M1726.3,226c-4.9,0-8.6,1.7-11.3,5c-2.7,3.3-4,8.1-4,14.2c0,12.8,5.2,19.2,15.5,19.2
			c9.9,0,14.8-6.6,14.8-19.7C1741.2,232.2,1736.2,226,1726.3,226z"/>
		<path fill="#E4F1FE" d="M1796,278.5h-20.6v-98.7h20.6V278.5z"/>
		<path fill="#E4F1FE" d="M1845.1,280.2c-11.1,0-19.8-3.1-26.2-9.3c-6.4-6.2-9.5-14.7-9.5-25.4c0-11,3.3-19.7,9.9-25.9
			c6.6-6.2,15.5-9.3,26.8-9.3c11.1,0,19.7,3.1,26,9.3c6.3,6.2,9.4,14.5,9.4,24.7c0,11.1-3.2,19.8-9.7,26.2
			C1865.3,277,1856.4,280.2,1845.1,280.2z M1845.7,226c-4.9,0-8.6,1.7-11.3,5c-2.7,3.3-4,8.1-4,14.2c0,12.8,5.2,19.2,15.5,19.2
			c9.9,0,14.8-6.6,14.8-19.7C1860.6,232.2,1855.6,226,1845.7,226z"/>
		<path fill="#E4F1FE" d="M1938.4,230.4c-2.5-1.3-5.4-2-8.7-2c-4.5,0-8,1.6-10.5,4.9c-2.5,3.3-3.8,7.7-3.8,13.4v31.8h-20.6v-66.7
			h20.6v12.4h0.3c3.3-9,9.1-13.5,17.6-13.5c2.2,0,3.9,0.3,5.1,0.8V230.4z"/>
		<path fill="#E4F1FE" d="M1982.4,275v-20.8c3.8,3.2,7.9,5.5,12.3,7.1c4.4,1.6,8.9,2.4,13.4,2.4c2.6,0,5-0.2,6.9-0.7
			c2-0.5,3.6-1.1,4.9-2c1.3-0.8,2.3-1.8,3-3c0.7-1.1,1-2.4,1-3.7c0-1.8-0.5-3.5-1.6-4.9c-1-1.4-2.5-2.8-4.3-4
			c-1.8-1.2-3.9-2.4-6.4-3.5c-2.5-1.1-5.1-2.3-8-3.5c-7.3-3-12.7-6.7-16.3-11.1c-3.6-4.4-5.4-9.7-5.4-15.9c0-4.9,1-9,2.9-12.5
			c2-3.5,4.6-6.4,8-8.6c3.4-2.3,7.3-3.9,11.7-5c4.4-1.1,9.1-1.6,14.1-1.6c4.9,0,9.2,0.3,12.9,0.9c3.8,0.6,7.2,1.5,10.4,2.7v19.5
			c-1.6-1.1-3.3-2-5.1-2.9c-1.8-0.8-3.7-1.5-5.7-2.1c-2-0.5-3.9-0.9-5.8-1.2c-1.9-0.3-3.8-0.4-5.5-0.4c-2.4,0-4.6,0.2-6.5,0.7
			c-2,0.5-3.6,1.1-4.9,1.9c-1.3,0.8-2.4,1.8-3.1,3c-0.7,1.2-1.1,2.4-1.1,3.9c0,1.6,0.4,3,1.2,4.2c0.8,1.2,2,2.4,3.5,3.5
			c1.5,1.1,3.4,2.2,5.5,3.3c2.2,1.1,4.6,2.2,7.4,3.3c3.7,1.6,7.1,3.2,10.1,5c3,1.8,5.5,3.7,7.6,6c2.1,2.2,3.8,4.7,4.9,7.6
			c1.1,2.8,1.7,6.2,1.7,9.9c0,5.2-1,9.6-3,13.1c-2,3.5-4.7,6.4-8,8.6c-3.4,2.2-7.3,3.8-11.8,4.7s-9.2,1.4-14.2,1.4
			c-5.1,0-10-0.4-14.6-1.3C1989.8,278,1985.8,276.7,1982.4,275z"/>
		<path fill="#E4F1FE" d="M2091.2,280.2c-11.1,0-19.8-3.1-26.2-9.3c-6.4-6.2-9.5-14.7-9.5-25.4c0-11,3.3-19.7,9.9-25.9
			c6.6-6.2,15.5-9.3,26.8-9.3c11.1,0,19.7,3.1,26,9.3c6.3,6.2,9.4,14.5,9.4,24.7c0,11.1-3.2,19.8-9.7,26.2
			C2111.4,277,2102.5,280.2,2091.2,280.2z M2091.7,226c-4.9,0-8.6,1.7-11.3,5c-2.7,3.3-4,8.1-4,14.2c0,12.8,5.2,19.2,15.5,19.2
			c9.9,0,14.8-6.6,14.8-19.7C2106.7,232.2,2101.7,226,2091.7,226z"/>
		<path fill="#E4F1FE" d="M2184.5,230.4c-2.5-1.3-5.4-2-8.7-2c-4.5,0-8,1.6-10.5,4.9c-2.5,3.3-3.8,7.7-3.8,13.4v31.8H2141v-66.7
			h20.6v12.4h0.3c3.3-9,9.1-13.5,17.6-13.5c2.2,0,3.9,0.3,5.1,0.8V230.4z"/>
		<path fill="#E4F1FE" d="M2238.2,277.8c-3,1.6-7.6,2.4-13.7,2.4c-14.5,0-21.7-7.5-21.7-22.6V227h-10.8v-15.2h10.8v-14.4l20.5-5.9
			v20.2h15V227h-15v27c0,6.9,2.8,10.4,8.3,10.4c2.2,0,4.4-0.6,6.7-1.9V277.8z"/>
		<path fill="#E4F1FE" d="M2309.1,251.1h-43.5c0.7,9.7,6.8,14.5,18.3,14.5c7.3,0,13.8-1.7,19.3-5.2v14.8c-6.2,3.3-14.2,4.9-24,4.9
			c-10.8,0-19.1-3-25.1-9c-5.9-6-8.9-14.3-8.9-25c0-11.1,3.2-19.8,9.6-26.3c6.4-6.5,14.3-9.7,23.7-9.7c9.7,0,17.2,2.9,22.6,8.7
			c5.3,5.8,8,13.6,8,23.5V251.1z M2290.1,238.4c0-9.5-3.9-14.3-11.6-14.3c-3.3,0-6.2,1.4-8.6,4.1c-2.4,2.7-3.9,6.1-4.4,10.2H2290.1z
			"/>
		<path fill="#E4F1FE" d="M2364.9,230.4c-2.5-1.3-5.4-2-8.7-2c-4.5,0-8,1.6-10.5,4.9c-2.5,3.3-3.8,7.7-3.8,13.4v31.8h-20.6v-66.7
			h20.6v12.4h0.3c3.3-9,9.1-13.5,17.6-13.5c2.2,0,3.9,0.3,5.1,0.8V230.4z"/>
	</g>
	<g id="Skittle_Color_Sorter">
		<path fill="none" stroke="#304E62" stroke-width="8" stroke-linejoin="round" d="M1170.7,275v-20.8c3.8,3.2,7.9,5.5,12.3,7.1
			c4.4,1.6,8.9,2.4,13.4,2.4c2.6,0,5-0.2,6.9-0.7c2-0.5,3.6-1.1,4.9-2c1.3-0.8,2.3-1.8,3-3c0.7-1.1,1-2.4,1-3.7
			c0-1.8-0.5-3.5-1.6-4.9c-1-1.4-2.5-2.8-4.3-4c-1.8-1.2-3.9-2.4-6.4-3.5c-2.5-1.1-5.1-2.3-8-3.5c-7.3-3-12.7-6.7-16.3-11.1
			c-3.6-4.4-5.4-9.7-5.4-15.9c0-4.9,1-9,2.9-12.5c2-3.5,4.6-6.4,8-8.6c3.4-2.3,7.3-3.9,11.7-5c4.4-1.1,9.1-1.6,14.1-1.6
			c4.9,0,9.2,0.3,12.9,0.9c3.8,0.6,7.2,1.5,10.4,2.7v19.5c-1.6-1.1-3.3-2-5.1-2.9c-1.8-0.8-3.7-1.5-5.7-2.1c-2-0.5-3.9-0.9-5.8-1.2
			c-1.9-0.3-3.8-0.4-5.5-0.4c-2.4,0-4.6,0.2-6.5,0.7c-2,0.5-3.6,1.1-4.9,1.9c-1.3,0.8-2.4,1.8-3.1,3c-0.7,1.2-1.1,2.4-1.1,3.9
			c0,1.6,0.4,3,1.2,4.2c0.8,1.2,2,2.4,3.5,3.5c1.5,1.1,3.4,2.2,5.5,3.3c2.2,1.1,4.6,2.2,7.4,3.3c3.7,1.6,7.1,3.2,10.1,5
			c3,1.8,5.5,3.7,7.6,6c2.1,2.2,3.8,4.7,4.9,7.6c1.1,2.8,1.7,6.2,1.7,9.9c0,5.2-1,9.6-3,13.1c-2,3.5-4.7,6.4-8,8.6
			c-3.4,2.2-7.3,3.8-11.8,4.7s-9.2,1.4-14.2,1.4c-5.1,0-10-0.4-14.6-1.3C1178.1,278,1174.1,276.7,1170.7,275z"/>
		<path fill="none" stroke="#304E62" stroke-width="8" stroke-linejoin="round" d="M1314.5,278.5h-24.7l-21.3-33.1h-0.3v33.1h-20.6
			v-98.7h20.6v62.8h0.3l19.9-30.8h24.4l-23.9,31.3L1314.5,278.5z"/>
		<path fill="none" stroke="#304E62" stroke-width="8" stroke-linejoin="round" d="M1332.7,201.3c-3.5,0-6.3-1-8.5-3.1
			c-2.2-2.1-3.3-4.6-3.3-7.6c0-3.1,1.1-5.6,3.3-7.6s5.1-2.9,8.5-2.9c3.5,0,6.4,1,8.6,2.9c2.2,2,3.3,4.5,3.3,7.6
			c0,3.1-1.1,5.7-3.3,7.7C1339.1,200.3,1336.2,201.3,1332.7,201.3z M1342.9,278.5h-20.6v-66.7h20.6V278.5z"/>
		<path fill="none" stroke="#304E62" stroke-width="8" stroke-linejoin="round" d="M1400.5,277.8c-3,1.6-7.6,2.4-13.7,2.4
			c-14.5,0-21.7-7.5-21.7-22.6V227h-10.8v-15.2h10.8v-14.4l20.5-5.9v20.2h15V227h-15v27c0,6.9,2.8,10.4,8.3,10.4
			c2.2,0,4.4-0.6,6.7-1.9V277.8z"/>
		<path fill="none" stroke="#304E62" stroke-width="8" stroke-linejoin="round" d="M1452.4,277.8c-3,1.6-7.6,2.4-13.7,2.4
			c-14.5,0-21.7-7.5-21.7-22.6V227h-10.8v-15.2h10.8v-14.4l20.5-5.9v20.2h15V227h-15v27c0,6.9,2.8,10.4,8.3,10.4
			c2.2,0,4.4-0.6,6.7-1.9V277.8z"/>
		<path fill="none" stroke="#304E62" stroke-width="8" stroke-linejoin="round" d="M1484.5,278.5H1464v-98.7h20.6V278.5z"/>
		<path fill="none" stroke="#304E62" stroke-width="8" stroke-linejoin="round" d="M1561.7,251.1h-43.5c0.7,9.7,6.8,14.5,18.3,14.5
			c7.3,0,13.8-1.7,19.3-5.2v14.8c-6.2,3.3-14.2,4.9-24,4.9c-10.8,0-19.1-3-25.1-9c-5.9-6-8.9-14.3-8.9-25c0-11.1,3.2-19.8,9.6-26.3
			c6.4-6.5,14.3-9.7,23.7-9.7c9.7,0,17.2,2.9,22.6,8.7c5.3,5.8,8,13.6,8,23.5V251.1z M1542.7,238.4c0-9.5-3.9-14.3-11.6-14.3
			c-3.3,0-6.2,1.4-8.6,4.1c-2.4,2.7-3.9,6.1-4.4,10.2H1542.7z"/>
		<path fill="none" stroke="#304E62" stroke-width="8" stroke-linejoin="round" d="M1679.7,275.2c-6.8,3.3-15.7,4.9-26.7,4.9
			c-14.3,0-25.6-4.2-33.8-12.6c-8.2-8.4-12.3-19.6-12.3-33.7c0-14.9,4.6-27,13.8-36.3c9.2-9.3,21.2-13.9,35.9-13.9
			c9.1,0,16.8,1.2,23,3.5v20.2c-6.3-3.7-13.4-5.6-21.4-5.6c-8.8,0-15.8,2.8-21.2,8.3c-5.4,5.5-8.1,13-8.1,22.4
			c0,9,2.5,16.2,7.6,21.6c5.1,5.4,11.9,8,20.5,8c8.2,0,15.7-2,22.5-6V275.2z"/>
		<path fill="none" stroke="#304E62" stroke-width="8" stroke-linejoin="round" d="M1725.7,280.2c-11.1,0-19.8-3.1-26.2-9.3
			c-6.4-6.2-9.5-14.7-9.5-25.4c0-11,3.3-19.7,9.9-25.9c6.6-6.2,15.5-9.3,26.8-9.3c11.1,0,19.7,3.1,26,9.3c6.3,6.2,9.4,14.5,9.4,24.7
			c0,11.1-3.2,19.8-9.7,26.2C1745.9,277,1737,280.2,1725.7,280.2z M1726.3,226c-4.9,0-8.6,1.7-11.3,5c-2.7,3.3-4,8.1-4,14.2
			c0,12.8,5.2,19.2,15.5,19.2c9.9,0,14.8-6.6,14.8-19.7C1741.2,232.2,1736.2,226,1726.3,226z"/>
		<path fill="none" stroke="#304E62" stroke-width="8" stroke-linejoin="round" d="M1796,278.5h-20.6v-98.7h20.6V278.5z"/>
		<path fill="none" stroke="#304E62" stroke-width="8" stroke-linejoin="round" d="M1845.1,280.2c-11.1,0-19.8-3.1-26.2-9.3
			c-6.4-6.2-9.5-14.7-9.5-25.4c0-11,3.3-19.7,9.9-25.9c6.6-6.2,15.5-9.3,26.8-9.3c11.1,0,19.7,3.1,26,9.3c6.3,6.2,9.4,14.5,9.4,24.7
			c0,11.1-3.2,19.8-9.7,26.2C1865.3,277,1856.4,280.2,1845.1,280.2z M1845.7,226c-4.9,0-8.6,1.7-11.3,5c-2.7,3.3-4,8.1-4,14.2
			c0,12.8,5.2,19.2,15.5,19.2c9.9,0,14.8-6.6,14.8-19.7C1860.6,232.2,1855.6,226,1845.7,226z"/>
		<path fill="none" stroke="#304E62" stroke-width="8" stroke-linejoin="round" d="M1938.4,230.4c-2.5-1.3-5.4-2-8.7-2
			c-4.5,0-8,1.6-10.5,4.9c-2.5,3.3-3.8,7.7-3.8,13.4v31.8h-20.6v-66.7h20.6v12.4h0.3c3.3-9,9.1-13.5,17.6-13.5
			c2.2,0,3.9,0.3,5.1,0.8V230.4z"/>
		<path fill="none" stroke="#304E62" stroke-width="8" stroke-linejoin="round" d="M1982.4,275v-20.8c3.8,3.2,7.9,5.5,12.3,7.1
			c4.4,1.6,8.9,2.4,13.4,2.4c2.6,0,5-0.2,6.9-0.7c2-0.5,3.6-1.1,4.9-2c1.3-0.8,2.3-1.8,3-3c0.7-1.1,1-2.4,1-3.7
			c0-1.8-0.5-3.5-1.6-4.9c-1-1.4-2.5-2.8-4.3-4c-1.8-1.2-3.9-2.4-6.4-3.5c-2.5-1.1-5.1-2.3-8-3.5c-7.3-3-12.7-6.7-16.3-11.1
			c-3.6-4.4-5.4-9.7-5.4-15.9c0-4.9,1-9,2.9-12.5c2-3.5,4.6-6.4,8-8.6c3.4-2.3,7.3-3.9,11.7-5c4.4-1.1,9.1-1.6,14.1-1.6
			c4.9,0,9.2,0.3,12.9,0.9c3.8,0.6,7.2,1.5,10.4,2.7v19.5c-1.6-1.1-3.3-2-5.1-2.9c-1.8-0.8-3.7-1.5-5.7-2.1c-2-0.5-3.9-0.9-5.8-1.2
			c-1.9-0.3-3.8-0.4-5.5-0.4c-2.4,0-4.6,0.2-6.5,0.7c-2,0.5-3.6,1.1-4.9,1.9c-1.3,0.8-2.4,1.8-3.1,3c-0.7,1.2-1.1,2.4-1.1,3.9
			c0,1.6,0.4,3,1.2,4.2c0.8,1.2,2,2.4,3.5,3.5c1.5,1.1,3.4,2.2,5.5,3.3c2.2,1.1,4.6,2.2,7.4,3.3c3.7,1.6,7.1,3.2,10.1,5
			c3,1.8,5.5,3.7,7.6,6c2.1,2.2,3.8,4.7,4.9,7.6c1.1,2.8,1.7,6.2,1.7,9.9c0,5.2-1,9.6-3,13.1c-2,3.5-4.7,6.4-8,8.6
			c-3.4,2.2-7.3,3.8-11.8,4.7s-9.2,1.4-14.2,1.4c-5.1,0-10-0.4-14.6-1.3C1989.8,278,1985.8,276.7,1982.4,275z"/>
		<path fill="none" stroke="#304E62" stroke-width="8" stroke-linejoin="round" d="M2091.2,280.2c-11.1,0-19.8-3.1-26.2-9.3
			c-6.4-6.2-9.5-14.7-9.5-25.4c0-11,3.3-19.7,9.9-25.9c6.6-6.2,15.5-9.3,26.8-9.3c11.1,0,19.7,3.1,26,9.3c6.3,6.2,9.4,14.5,9.4,24.7
			c0,11.1-3.2,19.8-9.7,26.2C2111.4,277,2102.5,280.2,2091.2,280.2z M2091.7,226c-4.9,0-8.6,1.7-11.3,5c-2.7,3.3-4,8.1-4,14.2
			c0,12.8,5.2,19.2,15.5,19.2c9.9,0,14.8-6.6,14.8-19.7C2106.7,232.2,2101.7,226,2091.7,226z"/>
		<path fill="none" stroke="#304E62" stroke-width="8" stroke-linejoin="round" d="M2184.5,230.4c-2.5-1.3-5.4-2-8.7-2
			c-4.5,0-8,1.6-10.5,4.9c-2.5,3.3-3.8,7.7-3.8,13.4v31.8H2141v-66.7h20.6v12.4h0.3c3.3-9,9.1-13.5,17.6-13.5c2.2,0,3.9,0.3,5.1,0.8
			V230.4z"/>
		<path fill="none" stroke="#304E62" stroke-width="8" stroke-linejoin="round" d="M2238.2,277.8c-3,1.6-7.6,2.4-13.7,2.4
			c-14.5,0-21.7-7.5-21.7-22.6V227h-10.8v-15.2h10.8v-14.4l20.5-5.9v20.2h15V227h-15v27c0,6.9,2.8,10.4,8.3,10.4
			c2.2,0,4.4-0.6,6.7-1.9V277.8z"/>
		<path fill="none" stroke="#304E62" stroke-width="8" stroke-linejoin="round" d="M2309.1,251.1h-43.5c0.7,9.7,6.8,14.5,18.3,14.5
			c7.3,0,13.8-1.7,19.3-5.2v14.8c-6.2,3.3-14.2,4.9-24,4.9c-10.8,0-19.1-3-25.1-9c-5.9-6-8.9-14.3-8.9-25c0-11.1,3.2-19.8,9.6-26.3
			c6.4-6.5,14.3-9.7,23.7-9.7c9.7,0,17.2,2.9,22.6,8.7c5.3,5.8,8,13.6,8,23.5V251.1z M2290.1,238.4c0-9.5-3.9-14.3-11.6-14.3
			c-3.3,0-6.2,1.4-8.6,4.1c-2.4,2.7-3.9,6.1-4.4,10.2H2290.1z"/>
		<path fill="none" stroke="#304E62" stroke-width="8" stroke-linejoin="round" d="M2364.9,230.4c-2.5-1.3-5.4-2-8.7-2
			c-4.5,0-8,1.6-10.5,4.9c-2.5,3.3-3.8,7.7-3.8,13.4v31.8h-20.6v-66.7h20.6v12.4h0.3c3.3-9,9.1-13.5,17.6-13.5
			c2.2,0,3.9,0.3,5.1,0.8V230.4z"/>
	</g>
</g>
<g id="Title">
	<g>
		<path fill="#E4F1FE" d="M1049,2093.2h-10.8l0.9-7.2c0.3-2.1,0.3-3.4,0.2-4c-0.2-0.5-0.7-0.8-1.4-0.8c-0.9,0-1.5,0.3-1.8,0.9
			c-0.3,0.7-0.6,2-0.9,4.1l-2.4,19.4c-0.2,2-0.3,3.3-0.1,4c0.1,0.6,0.7,0.9,1.5,0.9c0.8,0,1.4-0.3,1.7-0.9c0.3-0.6,0.6-2.1,0.9-4.3
			l0.6-5.2h10.8l-0.2,1.6c-0.5,4.3-1.2,7.4-2.1,9.2c-0.8,1.8-2.4,3.4-4.6,4.7c-2.3,1.4-4.9,2-7.9,2c-3.2,0-5.7-0.5-7.6-1.7
			c-1.9-1.2-3.1-2.7-3.5-4.8c-0.5-2-0.4-5.2,0.1-9.2l1.5-12.2c0.4-3,0.8-5.3,1.2-6.8c0.4-1.5,1.2-3,2.4-4.3c1.2-1.4,2.7-2.5,4.6-3.3
			c1.9-0.8,4-1.2,6.4-1.2c3.2,0,5.7,0.6,7.7,1.9c1.9,1.2,3.1,2.7,3.6,4.6c0.4,1.9,0.4,4.7-0.1,8.6L1049,2093.2L1049,2093.2z"/>
		<path fill="#E4F1FE" d="M1065.2,2075l-1.1,9.4c1-0.8,2-1.4,3.1-1.9c1.1-0.4,2.2-0.6,3.4-0.6c1.8,0,3.3,0.4,4.5,1.4
			c1.1,0.9,1.8,2,2,3.2c0.1,1.2,0,3.4-0.4,6.6l-2.9,23.5h-10.5l2.9-24c0.2-2,0.3-3.3,0.2-3.8c-0.2-0.5-0.6-0.8-1.2-0.8
			c-0.7,0-1.1,0.3-1.4,0.9s-0.5,1.8-0.8,3.5l-3,24.4h-10.4l5.1-41.7H1065.2L1065.2,2075z"/>
		<path fill="#E4F1FE" d="M1089.2,2095.8h-9.8l0.3-2.3c0.3-2.6,0.9-4.7,1.7-6.1c0.8-1.4,2.1-2.7,4.1-3.8c1.9-1.1,4.4-1.6,7.3-1.6
			c3.5,0,6.1,0.6,7.7,1.9s2.5,2.7,2.7,4.6c0.2,1.8-0.1,5.5-0.8,11.2l-2.1,17.1h-10.1l0.4-3c-0.8,1.2-1.7,2.1-2.8,2.7
			c-1.1,0.6-2.3,0.9-3.7,0.9c-1.8,0-3.5-0.5-4.8-1.5c-1.4-1-1.9-3.2-1.4-6.7l0.3-2.8c0.3-2.6,0.9-4.3,1.8-5.2c0.9-0.9,3-2,6.4-3.2
			c3.6-1.3,5.5-2.3,5.8-2.7c0.3-0.4,0.6-1.4,0.7-2.9c0.2-1.8,0.3-3,0-3.5c-0.2-0.5-0.6-0.8-1.2-0.8c-0.7,0-1.2,0.2-1.4,0.7
			c-0.2,0.4-0.5,1.6-0.7,3.5L1089.2,2095.8L1089.2,2095.8z M1091.9,2100.5c-1.8,1.2-2.9,2.3-3.3,3.1c-0.4,0.8-0.6,2-0.8,3.6
			c-0.2,1.8-0.2,2.9-0.1,3.4c0.2,0.5,0.6,0.8,1.3,0.8s1.1-0.2,1.3-0.6c0.3-0.4,0.5-1.5,0.7-3.2L1091.9,2100.5L1091.9,2100.5z"/>
		<path fill="#E4F1FE" d="M1118.4,2082.5l-1,4.5c1.9-3.2,4.3-4.9,7.2-5.1l-1.5,12c-1.9,0-3.3,0.3-4.3,0.8c-0.9,0.5-1.6,1.2-1.9,2.1
			c-0.3,0.9-0.7,3-1.1,6.4l-1.7,13.5h-10.4l4.2-34.1L1118.4,2082.5L1118.4,2082.5z"/>
		<path fill="#E4F1FE" d="M1137.2,2082.5l-0.6,3.2c1-1.3,2-2.3,3.3-2.9c1.2-0.7,2.5-1,3.9-1c2.8,0,4.8,1.3,6.1,3.8
			c0.5-0.5,0.9-1,1.4-1.5c0.6-0.5,1.3-1,1.9-1.4c0.6-0.3,1.2-0.5,1.8-0.7c0.6-0.2,1.3-0.2,1.9-0.2c0.9,0,1.7,0.1,2.4,0.3
			c0.4,0.1,0.7,0.2,1,0.4c0.1,0.1,1.6,1,1.9,2.9c0.7,15.2-7.9,11-9,4.2c-0.2-1.6-0.5-1.6-0.8-1.7c-0.4-0.2-0.6-0.1-1-0.1
			c-0.7,0-1.2,0.3-1.6,1s-0.6,2.5-1,5.4l-2.7,22.2h-10.1l2.7-21.7c0.4-3.3,0.6-5.4,0.5-6c-0.1-0.7-0.5-1-1.3-1
			c-0.4,0-0.9,0.2-1.3,0.5c-0.4,0.3-0.6,0.8-0.7,1.3c-0.1,0.5-0.2,1.6-0.5,3.2l-2.9,23.7h-10.1l4.2-34.1L1137.2,2082.5
			L1137.2,2082.5z"/>
		<path fill="#E4F1FE" d="M1176.7,2082.5l-6,24.7c-1,3.9-1.7,6.6-2.2,8s-1.1,2.6-2,3.5c-0.8,0.9-2,1.6-3.3,2
			c-1.4,0.4-3.5,0.7-6.4,0.7h-6.3l0.7-5.4c1.6,0,2.6-0.1,3.2-0.2c0.5-0.2,0.8-0.5,0.8-1.1c0-0.3,0-1.5-0.2-3.6l-1.9-24.9l9.3,0.2
			l0.5,19.3l4.5-23.1L1176.7,2082.5L1176.7,2082.5z"/>
		<path fill="#E4F1FE" d="M1202.8,2087.6h-10l0.4-3.1c0.2-1.4,0.2-2.4,0-2.7s-0.6-0.6-1.2-0.6c-0.7,0-1.2,0.3-1.6,0.8
			c-0.4,0.5-0.7,1.3-0.8,2.4c-0.2,1.4-0.1,2.4,0.2,3.1s1.2,1.5,2.8,2.5c4.5,2.9,7.2,5.2,8.3,7c1,1.8,1.3,4.8,0.8,8.9
			c-0.4,3-1,5.2-1.8,6.6c-0.9,1.4-2.3,2.6-4.4,3.5s-4.5,1.4-7.1,1.4c-2.9,0-5.3-0.5-7.2-1.6s-3.1-2.5-3.5-4.2
			c-0.5-1.7-0.4-4.1,0-7.2l0.3-2.7h10l-0.6,5c-0.2,1.5-0.2,2.6,0.1,3s0.7,0.7,1.4,0.7c0.7,0,1.3-0.3,1.7-0.8
			c0.4-0.5,0.7-1.4,0.9-2.5c0.3-2.5,0.2-4.1-0.4-4.8c-0.6-0.8-2.1-2-4.6-3.8c-2.5-1.8-4.1-3.1-4.9-3.9c-0.8-0.8-1.4-1.9-1.8-3.3
			c-0.4-1.4-0.5-3.2-0.2-5.4c0.4-3.2,1.1-5.5,2.1-7c1-1.5,2.5-2.6,4.4-3.5c1.9-0.8,4.2-1.3,6.7-1.3c2.8,0,5.2,0.4,7,1.4s3,2,3.5,3.5
			c0.5,1.4,0.5,3.7,0.1,7L1202.8,2087.6L1202.8,2087.6z"/>
		<path fill="#E4F1FE" d="M1229.5,2094.5l-1,8.3c-0.4,3.1-0.8,5.3-1.3,6.8c-0.5,1.4-1.3,2.7-2.5,4c-1.1,1.3-2.6,2.1-4.2,2.7
			c-1.7,0.6-3.5,0.9-5.6,0.9c-2.3,0-4.2-0.3-5.7-0.8c-1.5-0.5-2.7-1.3-3.5-2.3s-1.3-2.3-1.4-3.7c-0.2-1.4-0.1-3.6,0.3-6.5l1.1-8.7
			c0.4-3.2,1-5.7,1.9-7.4c0.9-1.8,2.3-3.2,4.3-4.3c1.9-1.1,4.3-1.6,7.1-1.6c2.3,0,4.3,0.3,5.9,1c1.6,0.7,2.8,1.6,3.6,2.7
			c0.8,1.1,1.3,2.3,1.4,3.5C1230,2090.3,1229.8,2092.1,1229.5,2094.5z M1219.4,2092c0.2-1.8,0.2-2.9,0.1-3.3
			c-0.1-0.4-0.5-0.7-1.1-0.7c-0.6,0-1.1,0.2-1.3,0.7c-0.3,0.4-0.5,1.5-0.7,3.3l-1.9,15.4c-0.2,1.6-0.2,2.7-0.1,3.1
			c0.2,0.4,0.5,0.7,1.1,0.7s1.1-0.2,1.3-0.7c0.3-0.4,0.4-1.4,0.6-2.9L1219.4,2092L1219.4,2092z"/>
		<path fill="#E4F1FE" d="M1248.5,2075l-0.6,5.3c-2.1,0-3.4,0.1-3.8,0.3c-0.4,0.2-0.7,0.8-0.8,1.7l-0.1,1.1h4.4l-0.7,5.4h-2.5
			l-3.4,27.9h-10.4l3.4-27.9h-2.1l0.7-5.4h2.1c0.3-2.3,0.5-3.7,0.8-4.5c0.3-0.8,0.7-1.4,1.4-2c0.7-0.6,1.6-1,2.7-1.4
			c1.1-0.3,2.9-0.4,5.2-0.4H1248.5L1248.5,2075z"/>
		<path fill="#E4F1FE" d="M1261.1,2078l-0.7,5.4h2.8l-0.7,5.4h-2.8l-2.2,18.3c-0.3,2.3-0.3,3.5-0.1,3.7c0.2,0.2,1.2,0.4,2.9,0.4
			l-0.7,5.5h-4.2c-2.4,0-4-0.1-5-0.3c-1-0.2-1.8-0.7-2.5-1.4c-0.7-0.7-1.1-1.5-1.1-2.5c-0.1-0.9,0.1-3.1,0.5-6.5l2.1-17.3h-2.3
			l0.7-5.4h2.3l0.7-5.4L1261.1,2078L1261.1,2078z"/>
	</g>
</g>
</svg>
